<mxfile host="app.diagrams.net" modified="2023-04-23T13:36:27.536Z" agent="Mozilla/5.0 (Windows NT 10.0; Win64; x64) AppleWebKit/537.36 (KHTML, like Gecko) Chrome/111.0.0.0 Safari/537.36 OPR/97.0.0.0" etag="YX1T7NJ0jcLLNW10Z6Ek" version="21.2.1" type="github">
  <diagram name="Страница 1" id="oiOGAxFl_bTior2dAmbJ">
    <mxGraphModel dx="1393" dy="776" grid="1" gridSize="10" guides="1" tooltips="1" connect="1" arrows="1" fold="1" page="1" pageScale="1" pageWidth="827" pageHeight="1169" math="0" shadow="0">
      <root>
        <mxCell id="0" />
        <mxCell id="1" parent="0" />
        <mxCell id="IqaQV8I7O7sf8hPiBvmR-3" value="" style="group" vertex="1" connectable="0" parent="1">
          <mxGeometry x="103" y="483" width="115" height="115" as="geometry" />
        </mxCell>
        <mxCell id="IqaQV8I7O7sf8hPiBvmR-1" value="Низюк Иван Петрович" style="ellipse;whiteSpace=wrap;html=1;aspect=fixed;fontSize=14;verticalAlign=middle;" vertex="1" parent="IqaQV8I7O7sf8hPiBvmR-3">
          <mxGeometry width="115" height="115" as="geometry" />
        </mxCell>
        <mxCell id="IqaQV8I7O7sf8hPiBvmR-2" value="1" style="ellipse;whiteSpace=wrap;html=1;aspect=fixed;fontSize=14;fontStyle=1" vertex="1" parent="IqaQV8I7O7sf8hPiBvmR-3">
          <mxGeometry x="37.5" width="40" height="40" as="geometry" />
        </mxCell>
        <mxCell id="IqaQV8I7O7sf8hPiBvmR-5" value="" style="group" vertex="1" connectable="0" parent="1">
          <mxGeometry x="233" y="483" width="115" height="115" as="geometry" />
        </mxCell>
        <mxCell id="IqaQV8I7O7sf8hPiBvmR-6" value="Низюк Иван Петрович" style="ellipse;whiteSpace=wrap;html=1;aspect=fixed;fontSize=14;verticalAlign=middle;" vertex="1" parent="IqaQV8I7O7sf8hPiBvmR-5">
          <mxGeometry width="115" height="115" as="geometry" />
        </mxCell>
        <mxCell id="IqaQV8I7O7sf8hPiBvmR-7" value="1" style="ellipse;whiteSpace=wrap;html=1;aspect=fixed;fontSize=14;fontStyle=1" vertex="1" parent="IqaQV8I7O7sf8hPiBvmR-5">
          <mxGeometry x="37.5" width="40" height="40" as="geometry" />
        </mxCell>
        <mxCell id="IqaQV8I7O7sf8hPiBvmR-8" value="" style="group" vertex="1" connectable="0" parent="1">
          <mxGeometry x="363" y="483" width="115" height="115" as="geometry" />
        </mxCell>
        <mxCell id="IqaQV8I7O7sf8hPiBvmR-9" value="Низюк Иван Петрович" style="ellipse;whiteSpace=wrap;html=1;aspect=fixed;fontSize=14;verticalAlign=middle;" vertex="1" parent="IqaQV8I7O7sf8hPiBvmR-8">
          <mxGeometry width="115" height="115" as="geometry" />
        </mxCell>
        <mxCell id="IqaQV8I7O7sf8hPiBvmR-10" value="1" style="ellipse;whiteSpace=wrap;html=1;aspect=fixed;fontSize=14;fontStyle=1" vertex="1" parent="IqaQV8I7O7sf8hPiBvmR-8">
          <mxGeometry x="37.5" width="40" height="40" as="geometry" />
        </mxCell>
        <mxCell id="IqaQV8I7O7sf8hPiBvmR-11" value="" style="group" vertex="1" connectable="0" parent="1">
          <mxGeometry x="493" y="483" width="115" height="115" as="geometry" />
        </mxCell>
        <mxCell id="IqaQV8I7O7sf8hPiBvmR-12" value="Низюк Иван Петрович" style="ellipse;whiteSpace=wrap;html=1;aspect=fixed;fontSize=14;verticalAlign=middle;" vertex="1" parent="IqaQV8I7O7sf8hPiBvmR-11">
          <mxGeometry width="115" height="115" as="geometry" />
        </mxCell>
        <mxCell id="IqaQV8I7O7sf8hPiBvmR-13" value="1" style="ellipse;whiteSpace=wrap;html=1;aspect=fixed;fontSize=14;fontStyle=1" vertex="1" parent="IqaQV8I7O7sf8hPiBvmR-11">
          <mxGeometry x="37.5" width="40" height="40" as="geometry" />
        </mxCell>
        <mxCell id="IqaQV8I7O7sf8hPiBvmR-14" value="" style="group" vertex="1" connectable="0" parent="1">
          <mxGeometry x="623" y="483" width="115" height="115" as="geometry" />
        </mxCell>
        <mxCell id="IqaQV8I7O7sf8hPiBvmR-15" value="Низюк Иван Петрович" style="ellipse;whiteSpace=wrap;html=1;aspect=fixed;fontSize=14;verticalAlign=middle;" vertex="1" parent="IqaQV8I7O7sf8hPiBvmR-14">
          <mxGeometry width="115" height="115" as="geometry" />
        </mxCell>
        <mxCell id="IqaQV8I7O7sf8hPiBvmR-16" value="1" style="ellipse;whiteSpace=wrap;html=1;aspect=fixed;fontSize=14;fontStyle=1" vertex="1" parent="IqaQV8I7O7sf8hPiBvmR-14">
          <mxGeometry x="37.5" width="40" height="40" as="geometry" />
        </mxCell>
        <mxCell id="IqaQV8I7O7sf8hPiBvmR-17" value="" style="group" vertex="1" connectable="0" parent="1">
          <mxGeometry x="102" y="644" width="115" height="115" as="geometry" />
        </mxCell>
        <mxCell id="IqaQV8I7O7sf8hPiBvmR-18" value="Низюк Иван Петрович" style="ellipse;whiteSpace=wrap;html=1;aspect=fixed;fontSize=14;verticalAlign=middle;" vertex="1" parent="IqaQV8I7O7sf8hPiBvmR-17">
          <mxGeometry width="115" height="115" as="geometry" />
        </mxCell>
        <mxCell id="IqaQV8I7O7sf8hPiBvmR-19" value="1" style="ellipse;whiteSpace=wrap;html=1;aspect=fixed;fontSize=14;fontStyle=1" vertex="1" parent="IqaQV8I7O7sf8hPiBvmR-17">
          <mxGeometry x="37.5" width="40" height="40" as="geometry" />
        </mxCell>
        <mxCell id="IqaQV8I7O7sf8hPiBvmR-20" value="" style="group" vertex="1" connectable="0" parent="1">
          <mxGeometry x="232" y="644" width="115" height="115" as="geometry" />
        </mxCell>
        <mxCell id="IqaQV8I7O7sf8hPiBvmR-21" value="Низюк Иван Петрович" style="ellipse;whiteSpace=wrap;html=1;aspect=fixed;fontSize=14;verticalAlign=middle;" vertex="1" parent="IqaQV8I7O7sf8hPiBvmR-20">
          <mxGeometry width="115" height="115" as="geometry" />
        </mxCell>
        <mxCell id="IqaQV8I7O7sf8hPiBvmR-22" value="1" style="ellipse;whiteSpace=wrap;html=1;aspect=fixed;fontSize=14;fontStyle=1" vertex="1" parent="IqaQV8I7O7sf8hPiBvmR-20">
          <mxGeometry x="37.5" width="40" height="40" as="geometry" />
        </mxCell>
        <mxCell id="IqaQV8I7O7sf8hPiBvmR-23" value="" style="group" vertex="1" connectable="0" parent="1">
          <mxGeometry x="362" y="644" width="115" height="115" as="geometry" />
        </mxCell>
        <mxCell id="IqaQV8I7O7sf8hPiBvmR-24" value="Низюк Иван Петрович" style="ellipse;whiteSpace=wrap;html=1;aspect=fixed;fontSize=14;verticalAlign=middle;" vertex="1" parent="IqaQV8I7O7sf8hPiBvmR-23">
          <mxGeometry width="115" height="115" as="geometry" />
        </mxCell>
        <mxCell id="IqaQV8I7O7sf8hPiBvmR-25" value="1" style="ellipse;whiteSpace=wrap;html=1;aspect=fixed;fontSize=14;fontStyle=1" vertex="1" parent="IqaQV8I7O7sf8hPiBvmR-23">
          <mxGeometry x="37.5" width="40" height="40" as="geometry" />
        </mxCell>
        <mxCell id="IqaQV8I7O7sf8hPiBvmR-26" value="" style="group" vertex="1" connectable="0" parent="1">
          <mxGeometry x="492" y="644" width="115" height="115" as="geometry" />
        </mxCell>
        <mxCell id="IqaQV8I7O7sf8hPiBvmR-27" value="Низюк Иван Петрович" style="ellipse;whiteSpace=wrap;html=1;aspect=fixed;fontSize=14;verticalAlign=middle;" vertex="1" parent="IqaQV8I7O7sf8hPiBvmR-26">
          <mxGeometry width="115" height="115" as="geometry" />
        </mxCell>
        <mxCell id="IqaQV8I7O7sf8hPiBvmR-28" value="1" style="ellipse;whiteSpace=wrap;html=1;aspect=fixed;fontSize=14;fontStyle=1" vertex="1" parent="IqaQV8I7O7sf8hPiBvmR-26">
          <mxGeometry x="37.5" width="40" height="40" as="geometry" />
        </mxCell>
        <mxCell id="IqaQV8I7O7sf8hPiBvmR-29" value="" style="group" vertex="1" connectable="0" parent="1">
          <mxGeometry x="622" y="644" width="115" height="115" as="geometry" />
        </mxCell>
        <mxCell id="IqaQV8I7O7sf8hPiBvmR-30" value="Низюк Иван Петрович" style="ellipse;whiteSpace=wrap;html=1;aspect=fixed;fontSize=14;verticalAlign=middle;" vertex="1" parent="IqaQV8I7O7sf8hPiBvmR-29">
          <mxGeometry width="115" height="115" as="geometry" />
        </mxCell>
        <mxCell id="IqaQV8I7O7sf8hPiBvmR-31" value="1" style="ellipse;whiteSpace=wrap;html=1;aspect=fixed;fontSize=14;fontStyle=1" vertex="1" parent="IqaQV8I7O7sf8hPiBvmR-29">
          <mxGeometry x="37.5" width="40" height="40" as="geometry" />
        </mxCell>
        <mxCell id="IqaQV8I7O7sf8hPiBvmR-32" value="" style="group" vertex="1" connectable="0" parent="1">
          <mxGeometry x="102" y="802" width="115" height="115" as="geometry" />
        </mxCell>
        <mxCell id="IqaQV8I7O7sf8hPiBvmR-33" value="Низюк Иван Петрович" style="ellipse;whiteSpace=wrap;html=1;aspect=fixed;fontSize=14;verticalAlign=middle;" vertex="1" parent="IqaQV8I7O7sf8hPiBvmR-32">
          <mxGeometry width="115" height="115" as="geometry" />
        </mxCell>
        <mxCell id="IqaQV8I7O7sf8hPiBvmR-34" value="1" style="ellipse;whiteSpace=wrap;html=1;aspect=fixed;fontSize=14;fontStyle=1" vertex="1" parent="IqaQV8I7O7sf8hPiBvmR-32">
          <mxGeometry x="37.5" width="40" height="40" as="geometry" />
        </mxCell>
        <mxCell id="IqaQV8I7O7sf8hPiBvmR-35" value="" style="group" vertex="1" connectable="0" parent="1">
          <mxGeometry x="232" y="802" width="115" height="115" as="geometry" />
        </mxCell>
        <mxCell id="IqaQV8I7O7sf8hPiBvmR-36" value="Низюк Иван Петрович" style="ellipse;whiteSpace=wrap;html=1;aspect=fixed;fontSize=14;verticalAlign=middle;" vertex="1" parent="IqaQV8I7O7sf8hPiBvmR-35">
          <mxGeometry width="115" height="115" as="geometry" />
        </mxCell>
        <mxCell id="IqaQV8I7O7sf8hPiBvmR-37" value="1" style="ellipse;whiteSpace=wrap;html=1;aspect=fixed;fontSize=14;fontStyle=1" vertex="1" parent="IqaQV8I7O7sf8hPiBvmR-35">
          <mxGeometry x="37.5" width="40" height="40" as="geometry" />
        </mxCell>
        <mxCell id="IqaQV8I7O7sf8hPiBvmR-38" value="" style="group" vertex="1" connectable="0" parent="1">
          <mxGeometry x="362" y="802" width="115" height="115" as="geometry" />
        </mxCell>
        <mxCell id="IqaQV8I7O7sf8hPiBvmR-39" value="Низюк Иван Петрович" style="ellipse;whiteSpace=wrap;html=1;aspect=fixed;fontSize=14;verticalAlign=middle;" vertex="1" parent="IqaQV8I7O7sf8hPiBvmR-38">
          <mxGeometry width="115" height="115" as="geometry" />
        </mxCell>
        <mxCell id="IqaQV8I7O7sf8hPiBvmR-40" value="1" style="ellipse;whiteSpace=wrap;html=1;aspect=fixed;fontSize=14;fontStyle=1" vertex="1" parent="IqaQV8I7O7sf8hPiBvmR-38">
          <mxGeometry x="37.5" width="40" height="40" as="geometry" />
        </mxCell>
        <mxCell id="IqaQV8I7O7sf8hPiBvmR-41" value="" style="group" vertex="1" connectable="0" parent="1">
          <mxGeometry x="492" y="802" width="115" height="115" as="geometry" />
        </mxCell>
        <mxCell id="IqaQV8I7O7sf8hPiBvmR-42" value="Низюк Иван Петрович" style="ellipse;whiteSpace=wrap;html=1;aspect=fixed;fontSize=14;verticalAlign=middle;" vertex="1" parent="IqaQV8I7O7sf8hPiBvmR-41">
          <mxGeometry width="115" height="115" as="geometry" />
        </mxCell>
        <mxCell id="IqaQV8I7O7sf8hPiBvmR-43" value="1" style="ellipse;whiteSpace=wrap;html=1;aspect=fixed;fontSize=14;fontStyle=1" vertex="1" parent="IqaQV8I7O7sf8hPiBvmR-41">
          <mxGeometry x="37.5" width="40" height="40" as="geometry" />
        </mxCell>
        <mxCell id="IqaQV8I7O7sf8hPiBvmR-44" value="" style="group" vertex="1" connectable="0" parent="1">
          <mxGeometry x="622" y="802" width="115" height="115" as="geometry" />
        </mxCell>
        <mxCell id="IqaQV8I7O7sf8hPiBvmR-45" value="Низюк Иван Петрович" style="ellipse;whiteSpace=wrap;html=1;aspect=fixed;fontSize=14;verticalAlign=middle;" vertex="1" parent="IqaQV8I7O7sf8hPiBvmR-44">
          <mxGeometry width="115" height="115" as="geometry" />
        </mxCell>
        <mxCell id="IqaQV8I7O7sf8hPiBvmR-46" value="1" style="ellipse;whiteSpace=wrap;html=1;aspect=fixed;fontSize=14;fontStyle=1" vertex="1" parent="IqaQV8I7O7sf8hPiBvmR-44">
          <mxGeometry x="37.5" width="40" height="40" as="geometry" />
        </mxCell>
      </root>
    </mxGraphModel>
  </diagram>
</mxfile>
